PathFileType	4	(X/Y/Z)	C:\Users\Biomechanik\SynologyDrive\AlexP\Athlete_03\Athlete_3_22_07_06\sq_80_EMG\marker_experimental.trc																																																																																																																																																																												
DataRate	CameraRate	NumFrames	NumMarkers	Units	OrigDataRate	OrigDataStartFrame	OrigNumFrames																																																																																																																																																																								
200	200	4	58	mm	200	175	1403																																																																																																																																																																								
Frame#	Time	BL			BR			GLAB			RFHD			LFHD			C7			T6			SPINMOL			SPINM2			SPINM3			T12			BELTOL			BELT2			BELT3			SACROL			SACR2			SACR3			LTHOL			LTH2			LTH3			LSHAOL			LSHA2			LSHA3			LHEE			LTOE			LM5			RTHOL			RTH2			RTH3			RSHAOL			RSHA2			RSHA3			RHEE			RTOE			RM5			STRN			XIPH			LACR			LUAOL			LUA2			LUA3			LLAOL			LLA2			LLA3			LWRU			RACR			RUAOL			RUA3			RLAOL			RLA2			RLA3			RWRU			USERMO0			USERMO1			USERMO2			USERMO3			USERMO4			USERMO5		
		X1	Y1	Z1	X2	Y2	Z2	X3	Y3	Z3	X4	Y4	Z4	X5	Y5	Z5	X6	Y6	Z6	X7	Y7	Z7	X8	Y8	Z8	X9	Y9	Z9	X10	Y10	Z10	X11	Y11	Z11	X12	Y12	Z12	X13	Y13	Z13	X14	Y14	Z14	X15	Y15	Z15	X16	Y16	Z16	X17	Y17	Z17	X18	Y18	Z18	X19	Y19	Z19	X20	Y20	Z20	X21	Y21	Z21	X22	Y22	Z22	X23	Y23	Z23	X24	Y24	Z24	X25	Y25	Z25	X26	Y26	Z26	X27	Y27	Z27	X28	Y28	Z28	X29	Y29	Z29	X30	Y30	Z30	X31	Y31	Z31	X32	Y32	Z32	X33	Y33	Z33	X34	Y34	Z34	X35	Y35	Z35	X36	Y36	Z36	X37	Y37	Z37	X38	Y38	Z38	X39	Y39	Z39	X40	Y40	Z40	X41	Y41	Z41	X42	Y42	Z42	X43	Y43	Z43	X44	Y44	Z44	X45	Y45	Z45	X46	Y46	Z46	X47	Y47	Z47	X48	Y48	Z48	X49	Y49	Z49	X50	Y50	Z50	X51	Y51	Z51	X52	Y52	Z52	X53	Y53	Z53	X54	Y54	Z54	X55	Y55	Z55	X56	Y56	Z56	X57	Y57	Z57	X58	Y58	Z58
																																																																																																																																																																															
176	0.875	189.1020355	1261.414063	-2282.507568	212.8217316	1283.686401	-60.33766937	550.302063	1450.065186	-1146.612915	485.6642456	1463.342773	-1073.898071	492.0069885	1464.638916	-1228.06958	298.8204346	1375.445801	-1155.30957	147.6699982	1246.029663	-1165.168579	125.8450012	1216.348999	-1172.191528	90.92975616	1161.405151	-1125.715942	102.4848251	1159.074707	-1174.2677	87.03314209	1103.005737	-1173.993896	52.92795563	1067.833862	-1172.476196	39.92976379	1008.388489	-1120.753174	36.65624619	1007.832764	-1170.833496	33.87813568	933.1183472	-1197.902588	40.97966385	942.9713135	-1148.122192	7.626000881	886.6091309	-1158.810425	165.478302	725.0439453	-1417.585449	123.4440536	657.0720825	-1413.144653	170.6891479	664.2611694	-1429.588501	144.0870056	327.3763428	-1519.7854	112.7228775	255.1406708	-1526.197266	159.0243378	269.6202698	-1537.448364	115.7691803	35.63534927	-1510.385376	322.8353882	49.02928162	-1550.187988	265.6412354	25.7982254	-1648.147461	122.2822113	697.1306763	-916.8867188	159.6779022	635.4311523	-882.6244507	115.2405853	636.2255249	-906.0606079	85.55970764	317.3046265	-824.9910889	130.7291107	261.4271545	-791.3840332	87.57983398	256.4248047	-816.5349121	89.74674225	35.59440231	-845.6012573	283.283905	46.24147415	-767.059021	216.0958252	36.63808441	-682.6422119	387.0235596	1226.875732	-1163.839111	359.1467896	1075.729614	-1158.588623	268.8760986	1317.83606	-1349.345337	136.439209	1232.304932	-1375.526001	99.1150589	1192.468628	-1338.108032	101.4067154	1188.902466	-1388.48877	84.82449341	1155.568726	-1463.938232	128.1999512	1169.120728	-1510.322388	127.300766	1202.513794	-1472.970459	176.2697906	1243.405518	-1526.942017	275.086731	1315.918579	-976.0133057	146.5815887	1217.913696	-939.9013062	89.86714172	1194.103638	-943.3140869	96.66819	1183.288574	-863.5463257	146.0257721	1224.854248	-868.2773437	136.3425293	1208.431152	-820.7232666	172.0310974	1245.26416	-799.3231812	0.040455502	0.0082951	-0.041969601	0.00960829	0.0667338	-0.058101799	0.0272037	0.075408302	-0.025889499	0.154936999	0.211705998	-0.753422976	0.36025399	2.997659922	-0.377373993	2.830140114	0	0
177	0.88	189.1990967	1261.437256	-2282.520264	212.8858032	1283.440796	-60.35189056	550.4151001	1449.9646	-1146.53479	485.7832031	1463.251953	-1073.823242	492.1287537	1464.591675	-1227.986084	298.9309082	1375.390869	-1155.262939	147.7779541	1246.014893	-1165.157837	125.9454269	1216.348633	-1172.166138	91.02490234	1161.41626	-1125.683472	102.5681534	1159.082642	-1174.238647	87.12138367	1103.016602	-1173.968994	52.99891663	1067.853882	-1172.445679	39.98495102	1008.41333	-1120.730713	36.71268082	1007.856995	-1170.809814	33.92806625	933.1500854	-1197.876343	41.05026627	942.9888306	-1148.094604	7.678800106	886.6369019	-1158.78064	165.4290009	725.0653076	-1417.645752	123.4094543	657.0964355	-1413.179565	170.6238861	664.28479	-1429.664185	144.0002441	327.3751831	-1519.821289	112.6667557	255.1227722	-1526.196899	158.9526367	269.6212769	-1537.482056	115.7806549	35.64256668	-1510.373291	322.8270264	49.03169632	-1550.217896	265.6242065	25.77254295	-1648.182495	122.365097	697.1253052	-916.8922729	159.7338104	635.402771	-882.6420288	115.2822723	636.2229004	-906.0603638	85.53833008	317.2954102	-825.0142212	130.7187195	261.4289551	-791.4074707	87.57150269	256.4151306	-816.5588989	89.75754547	35.59698105	-845.6102295	283.2850647	46.23592377	-767.0494385	216.0928345	36.63249969	-682.637085	387.1147766	1226.824463	-1163.813843	359.201355	1075.682739	-1158.598755	268.9715576	1317.799316	-1349.323975	136.5615845	1232.231079	-1375.542847	99.23162079	1192.396362	-1338.134766	101.5321732	1188.816162	-1388.523926	84.95537567	1155.499878	-1463.959106	128.3316345	1169.059326	-1510.339722	127.4268875	1202.452148	-1472.985962	176.3722076	1243.359497	-1526.960083	275.1560974	1315.843872	-975.9887695	146.6929626	1217.789429	-939.890625	89.97148895	1193.963867	-943.3185425	96.77682495	1183.138794	-863.5551758	146.1208191	1224.72229	-868.2871704	136.4532013	1208.288086	-820.7390747	172.1268616	1245.137085	-799.3369141	0.040608902	0.00821274	-0.0412434	0.00964895	0.0652702	-0.0571693	0.026171301	0.075802803	-0.025474999	0.157800004	0.210782006	-0.755002975	0.359086007	2.991559982	-0.375647008	2.828030109	0	0
178	0.885	189.2955933	1261.454224	-2282.533936	212.948822	1283.193115	-60.36792755	550.5224609	1449.873901	-1146.462646	485.8969727	1463.167725	-1073.753174	492.2430725	1464.552124	-1227.907593	299.0381165	1375.337158	-1155.219971	147.8857269	1245.999634	-1165.150269	126.0460587	1216.346924	-1172.142944	91.12171936	1161.426025	-1125.652344	102.6536102	1159.088623	-1174.210815	87.21105194	1103.025391	-1173.944214	53.07186508	1067.870239	-1172.415161	40.04472351	1008.433533	-1120.708496	36.77235794	1007.876892	-1170.786255	33.98005676	933.1730957	-1197.846069	41.12553787	942.9968872	-1148.063599	7.740186214	886.6530151	-1158.745728	165.3760376	725.0857544	-1417.710693	123.3756943	657.1171875	-1413.214478	170.5596771	664.307251	-1429.742065	143.9238739	327.3737793	-1519.858887	112.6192169	255.105484	-1526.197021	158.8897705	269.6216736	-1537.516357	115.7944641	35.65026093	-1510.360229	322.8190002	49.03360367	-1550.247803	265.6074524	25.74681282	-1648.217407	122.4767303	697.1195679	-916.9006958	159.8206482	635.3734131	-882.6659546	115.3503036	636.2201538	-906.0615234	85.53780365	317.289978	-825.0321655	130.728714	261.4314575	-791.4307251	87.58206177	256.4082336	-816.5794067	89.77020264	35.60074234	-845.6199951	283.2875977	46.22881699	-767.0406494	216.0906067	36.62763596	-682.6331787	387.2055054	1226.775635	-1163.792603	359.2549133	1075.639282	-1158.614136	269.0656128	1317.763306	-1349.305786	136.6830597	1232.156494	-1375.563354	99.34786224	1192.323242	-1338.164673	101.6559067	1188.728882	-1388.561768	85.08586884	1155.429199	-1463.982788	128.4622192	1168.996704	-1510.359985	127.5523987	1202.388672	-1473.005127	176.4731598	1243.312378	-1526.981201	275.223877	1315.770386	-975.9678955	146.8056946	1217.66748	-939.8867187	90.07089996	1193.824585	-943.3294678	96.8836441	1182.990723	-863.5687866	146.2144928	1224.591797	-868.2996826	136.5612946	1208.145752	-820.7582397	172.2217712	1245.009888	-799.3530273	0.041200999	0.00817977	-0.0406681	0.00974198	0.063649699	-0.056025799	0.025126999	0.075690299	-0.0252451	0.160372004	0.210161999	-0.757191002	0.358514994	2.983969927	-0.373407006	2.825599909	0	0
179	0.89	189.3916931	1261.464966	-2282.548584	213.010849	1282.94397	-60.38562775	550.6240845	1449.792236	-1146.398315	486.0061035	1463.089233	-1073.689209	492.3494263	1464.519531	-1227.835815	299.1421814	1375.284912	-1155.180664	147.9926147	1245.984253	-1165.145874	126.1463089	1216.344116	-1172.122681	91.21922302	1161.434692	-1125.623657	102.7406845	1159.092773	-1174.185059	87.30137634	1103.031982	-1173.920776	53.14603806	1067.882813	-1172.385986	40.10836792	1008.448853	-1120.687378	36.83477402	1007.892212	-1170.76416	34.03411484	933.1868896	-1197.813477	41.20484543	942.9952393	-1148.03064	7.810069084	886.6567993	-1158.707275	165.3227386	725.1051636	-1417.780518	123.3452835	657.1345215	-1413.250122	170.499939	664.3284302	-1429.822021	143.8602448	327.3722534	-1519.898193	112.5821304	255.0890961	-1526.198364	158.8379211	269.6214294	-1537.551147	115.8107758	35.65850449	-1510.346069	322.8114929	49.034832	-1550.277588	265.5913696	25.72127342	-1648.251831	122.6164856	697.1134644	-916.9120483	159.9379578	635.3435059	-882.6957397	115.4449158	636.2172241	-906.0640869	85.55932617	317.2881165	-825.0452881	130.7600861	261.4345093	-791.4536743	87.61238861	256.4042969	-816.5964355	89.78484344	35.60573196	-845.6306763	283.2916565	46.2201004	-767.0326538	216.0892181	36.62361526	-682.6306152	387.2952881	1226.728394	-1163.775391	359.3066711	1075.598145	-1158.634399	269.1583862	1317.727905	-1349.290894	136.8030396	1232.082275	-1375.587158	99.46279907	1192.250488	-1338.197388	101.7777405	1188.64209	-1388.601074	85.21498108	1155.358154	-1464.008911	128.5906219	1168.934082	-1510.382935	127.676178	1202.324463	-1473.027344	176.5724792	1243.265015	-1527.004761	275.2901001	1315.698486	-975.9509888	146.9189148	1217.54895	-939.8893433	90.16605377	1193.687744	-943.3461304	96.98815155	1182.845703	-863.5869751	146.3064575	1224.463867	-868.3148804	136.6665192	1208.005127	-820.7803955	172.3157196	1244.883301	-799.37146	0.042180002	0.00819549	-0.0402909	0.00988498	0.0619298	-0.054764502	0.024116799	0.075081803	-0.0252383	0.162559003	0.209981993	-0.759799004	0.358547986	2.974720001	-0.370770991	2.822890043	0	0
